# xmcd
#
# Track frame offsets:
#	150
#	21793
#	43330
#	71620
#	89653
#	112923
#	137515
#	156818
#	176453
#	188423
#	209288
#	228500
#
# Disc length: 3346 seconds
#
# Revision: 1
# Processed by: cddbd v1.5.2PL0 Copyright (c) Steve Scherf et al.
# Submitted via: EZCDAudioConverter 8.0.2.1
#
DISCID=9c0d100c
DTITLE=Hương Lan - Huế Xưa Huế Bây Giờ
DYEAR=1989
DGENRE=
TTITLE0=Huế Xưa
TTITLE1=Vỹ Dạ đò trăng
TTITLE2=Khúc tình ca xứ Huế
TTITLE3=Lá thư miền Trung
TTITLE4=Từ Đàm quê hương tôi
TTITLE5=Chiều cố đô
TTITLE6=Huế Bây Giờ
TTITLE7=Giã từ cố đô
TTITLE8=Cầu sương đếm cỏ
TTITLE9=Gọi giấc mơ xưa
TTITLE10=Trở về Huế
TTITLE11=Vùng quê tương lai
EXTD=
EXTT0=
EXTT1=
EXTT2=
EXTT3=
EXTT4=
EXTT5=
EXTT6=
EXTT7=
EXTT8=
EXTT9=
EXTT10=
EXTT11=
PLAYORDER=
